# xmcd
#
# Track frame offsets: 
#        150
#        11093
#        24106
#        36448
#        53925
#        66264
#        81418
#        93388
#        110653
#        121542
#        136653
#        148268
#        158553
#
# Disc length: 2321 seconds
#
# Revision: 0
# Processed by: cddbd v1.5.2PL0 Copyright (c) Steve Scherf et al.
# Submitted via: ExactAudioCopy v0.99pb4
#
DISCID=a9090f0d
DTITLE=Scotty Campbell And His Wardenaires - Smokin' and Drinkin'
DYEAR=2008
DGENRE=Country
TTITLE0=Smokin' and Drinkin'
TTITLE1=Who'll Be The First
TTITLE2=April's Fool
TTITLE3=Jeannie In A Bottle
TTITLE4=Stumblin' Round The Room
TTITLE5=Little Piece Of Heaven
TTITLE6=Near Mrs.
TTITLE7=Because Of The Wind
TTITLE8=He's Got A Way With Women
TTITLE9=Tender Lovin' Care
TTITLE10=Sick Sober And Sorry (w Jack Diamond)
TTITLE11=Half Of This, Half Of That
TTITLE12=Hello Heartache
EXTD=
EXTT0=
EXTT1=
EXTT2=
EXTT3=
EXTT4=
EXTT5=
EXTT6=
EXTT7=
EXTT8=
EXTT9=
EXTT10=
EXTT11=
EXTT12=
PLAYORDER=
